<?xml version="1.0" encoding="UTF-8"?>
<svg id="Capa_1" data-name="Capa 1" xmlns="http://www.w3.org/2000/svg" viewBox="0 0 1080 346.68085">
  <defs>
    <style>
      .cls-1 {
        fill: #83007d;
      }
    </style>
  </defs>
  <g>
    <g>
      <g>
        <path class="cls-1" d="M114.24152,270.43204h-14.93756v-14.93764c0,4.12658,1.67274,7.85774,4.37632,10.56132,2.70041,2.70357,6.43791,4.37632,10.56124,4.37632Z"/>
        <path class="cls-1" d="M980.69604,255.49131h0c0,8.25154-6.68918,14.94072-14.94071,14.94072H263.63301V96.14884l-14.94072,4.97708-14.93764,4.98024-14.94072,4.98024-14.93756,4.97715-14.94072,4.98024-14.93756-4.98024-14.93756-4.97715-14.94072-4.98024-14.93756-4.98024-14.94072-4.97708v174.2832c-4.12334,0-7.86083-1.67274-10.56124-4.37632-2.70357-2.70357-4.37632-6.43474-4.37632-10.56132V76.22787l14.93756,4.98024,14.94072,4.98024,14.93756,4.98024h.00317l14.93756,4.98024,14.93756,4.97708,14.93756,4.98024,14.94072-4.98024,14.93756-4.98024,14.93439-4.97708h.00633v-.00317l14.93764-4.97708,14.94072-4.98024,14.93748-4.98024v179.26344h702.12554Z"/>
      </g>
      <path class="cls-1" d="M144.11884,136.78625v133.64439h-14.93764V116.06529c3.15573,1.04981,5.94468,2.77311,8.23401,4.97708,4.00321,3.84822,6.47589,9.1668,6.6878,14.93439v.00633c.0095.26877.01583.53439.01583.80316Z"/>
      <path class="cls-1" d="M248.69125,116.06529v14.93756l-14.93764,4.97708v.00317h-.00625l-14.93447,4.97708-29.87512,9.96048c0-5.76443,2.3842-11.11148,6.35577-14.93756,2.17237-2.09012,4.81897-3.72491,7.81343-4.72412l.76844-.25613,14.93748-4.98024,14.94072-4.98024h.00324l14.93439-4.97708Z"/>
      <path class="cls-1" d="M248.69125,145.94358v124.48706h-14.93764v-104.56926h-.00625l-14.93447,4.97708-29.87512,9.96046c0-5.76443,2.3842-11.11144,6.35577-14.93754,2.17237-2.09012,4.81897-3.72489,7.81343-4.72412l.76844-.25613,14.93748-4.98024,14.94072-4.98024h.00324l14.93439-4.97708Z"/>
    </g>
    <path class="cls-1" d="M205.95826,267.7589l-2.66477-2.88012c-5.78064,3.7163-12.59345,5.57421-20.43892,5.57421-5.36777,0-10.06451-.86136-14.09022-2.58067s-7.12271-4.18041-9.29051-7.38038c-2.1678-3.20046-3.2517-6.93238-3.2517-11.20014,0-4.67917,1.25471-8.55018,3.76803-11.61301,2.51137-3.06137,6.17545-5.96951,10.99322-8.72294-2.61581-2.95791-4.59328-5.69328-5.93534-8.20612-1.34207-2.51137-2.0131-5.14377-2.0131-7.8972,0-5.22869,1.82277-9.39348,5.47123-12.49048,3.647-3.09651,8.56774-4.64501,14.76125-4.64501,6.26134,0,11.26798,1.5485,15.01942,4.64501,3.75046,3.097,5.62594,7.26179,5.62594,12.49048,0,4.12917-.9985,7.60487-2.99354,10.42614-1.99651,2.82273-5.4034,5.71281-10.21922,8.67072l11.87069,13.21324c.79645-1.73994,1.46016-3.58736,1.99111-5.54229,1.33734-4.92403,5.73019-8.39322,10.83261-8.39322h4.94466c.10353,0,.18514.0904.17549.19349-.91339,9.75676-3.66085,17.95012-8.24048,24.58055l13.17069,14.40929-13.44403-.00797c-2.2944-.00136-4.4843-.95943-6.0425-2.64356ZM194.72574,255.38183l-15.38056-17.13549c-2.95986,1.65147-5.12767,3.28733-6.5034,4.90317-1.37769,1.6178-2.06483,3.66457-2.06483,6.14227,0,3.02916,1.0839,5.4195,3.2517,7.17395,2.1678,1.75493,5.1101,2.6324,8.82591,2.6324,4.54204,0,8.49845-1.2386,11.87118-3.7163ZM179.19,208.6721c-1.0678,1.0678-1.59974,2.4611-1.59974,4.18041,0,1.65196.37724,3.19997,1.13514,4.6455.75644,1.44504,1.99553,3.19997,3.7163,5.26431,2.54504-1.58217,4.3356-3.09651,5.36777-4.54204,1.03217-1.44504,1.5485-3.23365,1.5485-5.36777,0-1.71931-.56757-3.11262-1.7032-4.18041-1.13563-1.06633-2.59824-1.60023-4.38733-1.60023-1.65147,0-3.01111.5339-4.07744,1.60023Z"/>
  </g>
  <g>
    <path class="cls-1" d="M299.50037,175.47424c-3.99542-3.54883-5.99199-8.78994-5.99199-15.72255v-17.66221c0-6.933,1.99656-12.17411,5.99199-15.72294,3.99427-3.54883,9.79772-5.32344,17.40901-5.32344,5.28991,0,9.62182.89511,12.99613,2.68221,3.37297,1.78866,6.05898,4.47125,8.05688,8.0474l-8.17823,5.77724c-1.67385-2.64124-3.41489-4.53954-5.22272-5.69491-1.80937-1.15537-4.35986-1.73325-7.65206-1.73325-4.15735,0-7.19383,1.00475-9.10924,3.0127-1.91694,2.00912-2.87455,4.99334-2.87455,8.95499v17.66221c0,3.96166.95761,6.94705,2.87455,8.95499,1.91541,2.00912,4.95188,3.01231,9.10924,3.01231,3.56284,0,6.32867-.61885,8.29978-1.85694,1.96996-1.23809,3.73741-3.2316,5.30369-5.98365l8.09727,6.10734c-1.72821,2.53159-3.50963,4.56763-5.34427,6.10773-1.83578,1.54088-4.06242,2.71069-6.68009,3.50747-2.61902.79717-5.84403,1.19673-9.67637,1.19673-7.61129,0-13.41474-1.77422-17.40901-5.32344Z"/>
    <path class="cls-1" d="M352.20615,175.47424c-3.96767-3.54883-5.9516-8.78994-5.9516-15.72255v-17.66221c0-6.933,1.98393-12.17411,5.9516-15.72294,3.96748-3.54883,9.70279-5.32344,17.2065-5.32344,7.50276,0,13.23903,1.77461,17.20669,5.32344,3.96767,3.54883,5.9516,8.78994,5.9516,15.72294v17.66221c0,6.93261-1.98393,12.17372-5.9516,15.72255-3.96767,3.54922-9.70394,5.32344-17.20669,5.32344-7.50372,0-13.23903-1.77422-17.2065-5.32344ZM378.11725,168.62396c2.02432-2.06336,3.03648-5.02026,3.03648-8.87227v-17.66221c0-3.85084-1.01216-6.80931-3.03648-8.87266s-4.92662-3.09503-8.7046-3.09503c-3.77913,0-6.68009,1.03168-8.70441,3.09503-2.02432,2.06336-3.03648,5.02182-3.03648,8.87266v17.66221c0,3.85201,1.01216,6.80892,3.03648,8.87227s4.92528,3.09503,8.70441,3.09503c3.77798,0,6.68028-1.03168,8.7046-3.09503Z"/>
    <path class="cls-1" d="M403.90624,121.01223h5.91102c2.96814,0,5.34427.42721,7.12569,1.28122,1.78123.85401,3.31976,2.2075,4.61539,4.05685,1.29544,1.85096,2.8064,4.62699,4.53442,8.3273l4.69635,9.99292,4.69674-9.99292c1.72687-3.7003,3.2386-6.47634,4.53442-8.3273,1.29544-1.84934,2.83397-3.20284,4.6152-4.05685,1.78161-.85401,4.1562-1.28122,7.12569-1.28122h5.91102v59.78629h-10.36467v-47.23095c-.64772,0-1.18787.31334-1.6193.93921-.43258.62748-1.0803,1.73749-1.94316,3.33124l-12.95594,25.36629-12.95555-25.36629c-.8642-1.59375-1.51192-2.70376-1.94335-3.33124-.43258-.62587-.97158-.96747-1.61949-1.02481v47.31655h-10.36448v-59.78629Z"/>
    <path class="cls-1" d="M475.08139,175.96833c-3.77913-3.27458-5.66832-7.82223-5.66832-13.64455v-41.31156h11.41741v41.31156c0,6.21333,3.67003,9.32039,11.01201,9.32039,7.34083,0,11.01239-3.10706,11.01239-9.32039v-41.31156h11.41703v41.31156c0,5.82231-1.88995,10.36997-5.66793,13.64455-3.77913,3.27458-9.36629,4.91207-16.76148,4.91207-7.39634,0-12.98311-1.63749-16.7611-4.91207Z"/>
    <path class="cls-1" d="M572.65286,121.01223v45.69373c0,4.61205-.89081,8.1141-2.67204,10.50532-1.78123,2.39163-4.64314,3.58724-8.58306,3.58724h-8.01611l-16.68033-40.74007v40.74007h-10.68853v-59.78629h12.87478l20.56703,49.53738h.16193c.91722,0,1.53814-.41267,1.862-1.23841.32424-.82494.48617-2.31935.48617-4.48405v-43.81491h10.68815Z"/>
    <path class="cls-1" d="M585.4461,121.01223h11.41703v59.78629h-11.41703v-59.78629Z"/>
    <path class="cls-1" d="M610.62756,121.01223h21.05282c6.36887,0,11.40324.96909,15.10122,2.90403,3.69721,1.93656,6.36925,5.0538,8.01649,9.35211,1.6461,4.29993,2.46953,10.17866,2.46953,17.63701,0,7.45996-.82343,13.33869-2.46953,17.63701-1.64725,4.29993-4.31928,7.41716-8.01649,9.35211-3.69798,1.93656-8.73236,2.90403-15.10122,2.90403h-21.05282v-59.78629ZM631.68038,171.40362c3.56284,0,6.36887-.65413,8.42113-1.96442,2.05073-1.30908,3.52227-3.4443,4.41307-6.40567.89081-2.96016,1.33602-7.00368,1.33602-12.12814s-.44521-9.16677-1.33602-12.12814c-.89081-2.95976-2.36234-5.09498-4.41307-6.40567-2.05226-1.30908-4.85828-1.96442-8.42113-1.96442h-9.63579v40.99648h9.63579Z"/>
    <path class="cls-1" d="M699.83017,167.11844h-22.18633l-3.80555,13.68008h-11.41741l13.84636-46.83081c.97158-3.35713,1.99675-5.9588,3.07705-7.805,1.07915-1.8466,2.36081-3.16033,3.84613-3.94476,1.48417-.78284,3.33277-1.17486,5.54658-1.17486,2.21304,0,4.04863.39202,5.50639,1.17486,1.45737.78443,2.73903,2.09816,3.84613,3.94476,1.10556,1.8462,2.14567,4.44787,3.11725,7.805l13.84636,46.83081h-11.41703l-3.80593-13.68008ZM697.32006,158.30642l-6.80144-24.17087c-.3786-1.45419-.97196-2.18188-1.78161-2.18188s-1.40416.72769-1.78123,2.18188l-6.80183,24.17087h17.16612Z"/>
    <path class="cls-1" d="M725.11057,121.01223h21.05282c6.36925,0,11.40324.96909,15.1016,2.90403,3.69683,1.93656,6.36887,5.0538,8.01611,9.35211,1.6461,4.29993,2.46953,10.17866,2.46953,17.63701,0,7.45996-.82343,13.33869-2.46953,17.63701-1.64725,4.29993-4.31928,7.41716-8.01611,9.35211-3.69836,1.93656-8.73236,2.90403-15.1016,2.90403h-21.05282v-59.78629ZM746.16339,171.40362c3.56284,0,6.36925-.65413,8.42113-1.96442,2.05111-1.30908,3.52227-3.4443,4.41307-6.40567.89081-2.96016,1.33602-7.00368,1.33602-12.12814s-.44521-9.16677-1.33602-12.12814c-.89081-2.95976-2.36196-5.09498-4.41307-6.40567-2.05188-1.30908-4.85828-1.96442-8.42113-1.96442h-9.63579v40.99648h9.63579Z"/>
    <path class="cls-1" d="M801.07414,121.01223h5.91102c2.96833,0,5.34407.4272,7.12569,1.2812,1.78123.854,3.31976,2.20747,4.6152,4.05679,1.29582,1.85093,2.8064,4.62693,4.53481,8.32718l4.69635,9.99278,4.69635-9.99278c1.72687-3.70025,3.23898-6.47625,4.53442-8.32718,1.29544-1.84932,2.83397-3.20279,4.61558-4.05679,1.78123-.854,4.15582-1.2812,7.1253-1.2812h5.91102v59.78545h-10.36429v-47.23028c-.64772,0-1.18825.31333-1.61968.93919-.43258.62748-1.0803,1.73747-1.94316,3.33119l-12.95555,25.36593-12.95555-25.36593c-.86439-1.59372-1.51211-2.70372-1.94354-3.33119-.43258-.62586-.97158-.96746-1.6193-1.0248v47.31588h-10.36467v-59.78545Z"/>
    <path class="cls-1" d="M905.86542,180.79957l-4.06926-4.4587c-4.53442,2.97134-9.8785,4.45682-16.03261,4.45682-4.21056,0-7.89476-.6887-11.05259-2.06336s-5.58716-3.34242-7.28762-5.90093c-1.70046-2.5589-2.55069-5.54273-2.55069-8.95499,0-3.7412.98421-6.83623,2.9557-9.2851,1.96996-2.4477,4.84412-4.77287,8.62325-6.97436-2.05188-2.36498-3.60304-4.55202-4.65578-6.56114-1.05274-2.00795-1.57911-4.11266-1.57911-6.31415,0-4.18056,1.42981-7.51049,4.29172-9.98667,2.86076-2.47579,6.72067-3.71388,11.57896-3.71388,4.9115,0,8.83878,1.23809,11.78146,3.71388,2.94192,2.47618,4.41307,5.80611,4.41307,9.98667,0,3.30145-.78324,6.08042-2.34818,8.33614-1.56609,2.25689-4.23851,4.56763-8.01611,6.93261l9.31155,10.56455c1.45775-3.24604,2.34856-6.95992,2.67242-11.14204h11.41703c-.70208,7.86908-2.86191,14.47158-6.47797,19.8079l10.38135,11.55281-13.35662.00395ZM895.07549,168.74765l-12.06475-13.70055c-2.32176,1.32042-4.02222,2.62836-5.10137,3.9203-1.08068,1.2935-1.61968,2.92998-1.61968,4.911,0,2.42195.85023,4.33312,2.55069,5.73588,1.70046,1.40314,4.00844,2.10472,6.92318,2.10472,3.56284,0,6.66631-.99032,9.31193-2.97134ZM882.88901,131.40124c-.8376.85375-1.25486,1.96776-1.25486,3.34242,0,1.32081.29591,2.55851.89042,3.71427.59336,1.15537,1.56532,2.55851,2.91512,4.20904,1.99637-1.26501,3.40091-2.47579,4.21056-3.63155.80965-1.15537,1.21467-2.58544,1.21467-4.29176,0-1.37466-.44521-2.48867-1.33602-3.34242-.89081-.85258-2.0381-1.27945-3.44149-1.27945-1.29544,0-2.36196.42687-3.19841,1.27945Z"/>
    <path class="cls-1" d="M926.72886,139.31717c0-5.93307,1.56494-10.46722,4.69635-13.60287,3.13026-3.13405,8.286-4.70207,15.46604-4.70207h10.04044c4.91915,0,8.90691,4.1352,8.90691,9.23622h0s-18.94735,0-18.94735,0c-2.96948,0-5.16989.72843-6.59932,2.18332-1.43096,1.45647-2.14605,3.75094-2.14605,6.88539v8.14457h24.12987v9.23623h-24.12987v24.1016h-11.41703v-41.4824Z"/>
  </g>
  <g>
    <g>
      <path class="cls-1" d="M306.11741,202.87051c-3.84152,2.40259-5.76131,7.56563-5.76131,15.4912,0,2.30597.20106,4.46723.60298,6.485.40193,2.01736,1.08221,3.75897,2.04317,5.22358.9598,1.46585,2.21068,2.61863,3.75149,3.45875,1.54081.84095,3.47198,1.26059,5.79466,1.26059,2.23285,0,5.02435-1.03211,8.37392-3.09799.89291-.57639,1.62987-.86458,2.21068-.86458.80404,0,1.20597.57639,1.20597,1.72917,0,.57639-.33503,1.36882-1.00491,2.37771s-1.58592,1.87347-2.74658,2.59375c-2.76972,1.6819-5.89529,2.52202-9.37883,2.52202h-.87093c-2.81348,0-5.27033-.55192-7.36901-1.65743-2.09965-1.10426-3.84152-2.59375-5.22522-4.46723-1.38486-1.87306-2.42312-4.04592-3.11516-6.52067-.69281-2.4735-1.03826-5.07969-1.03826-7.81775v-1.00847c0-3.17056.37879-6.12466,1.13888-8.86272.75874-2.73806,1.9196-5.11577,3.48354-7.13313,1.56278-2.01736,3.5275-3.61384,5.89509-4.7915,2.36664-1.17642,5.15833-1.76524,8.37392-1.76524,5.22522,0,8.57479,1.32155,10.04871,3.96299.57985,1.10551.87074,2.08952.87074,2.9541,0,1.77768-.58082,2.66591-1.74168,2.66591-.40193,0-1.22891-.45614-2.47863-1.36882-1.29599-.96037-2.59063-1.68107-3.88547-2.16167-1.29599-.47977-2.74678-.72069-4.35448-.72069s-3.21559.50424-4.82329,1.51313Z"/>
      <path class="cls-1" d="M365.13621,216.48865v2.16125c0,1.44139-.12357,3.11084-.36858,5.00795-.24597,1.89794-.73677,3.79505-1.47373,5.69216-.73696,1.89794-1.78678,3.68682-3.14851,5.36789-1.36288,1.6819-3.1381,3.05072-5.32584,4.10688-2.41174,1.15278-4.82329,1.72917-7.23504,1.72917h-.60298c-2.76952,0-5.18127-.57639-7.23504-1.72917-2.05473-1.15278-3.77443-2.70198-5.15833-4.64761-1.38467-1.94521-2.42312-4.17903-3.11497-6.70063-.69301-2.52202-1.03845-5.12696-1.03845-7.81775v-1.44097c0-2.88236.33503-5.66728,1.00491-8.35806.66988-2.68954,1.70833-5.07969,3.11516-7.16921s3.19246-3.77058,5.35919-5.04362c2.16577-1.2722,4.72286-1.90955,7.6705-1.90955h1.33975c1.96471,0,4.01944.50424,6.16324,1.51313,1.74187.81731,3.24914,1.90955,4.52199,3.27837,1.27267,1.36882,2.32153,2.91802,3.14851,4.64719.82583,1.72958,1.42881,3.56657,1.80876,5.51219.37899,1.94521.56944,3.87964.56944,5.80039ZM336.73196,217.56928v1.58528c0,4.61112.82583,8.38253,2.47863,11.31216.93783,1.72917,2.12066,3.06233,3.55063,3.99865,1.42881.93674,2.74658,1.40531,3.95236,1.40531h1.33994c1.96471,0,3.59439-.58759,4.89018-1.76524,1.29483-1.17642,2.33329-2.64144,3.11516-4.39549.78091-1.7528,1.32838-3.6383,1.64124-5.65608.3119-2.01736.46901-3.86596.46901-5.54785v-1.29708c0-1.10426-.06708-2.37771-.20106-3.81868s-.41349-2.89356-.83739-4.359c-.42486-1.46502-1.01628-2.85748-1.77522-4.17945-.7599-1.32031-1.74168-2.38891-2.94764-3.20622-1.42977-.96037-2.88056-1.44097-4.35428-1.44097h-.93802c-1.2958,0-2.63555.40886-4.01944,1.22493-1.25088.7688-2.27758,1.75405-3.08162,2.9541-.80385,1.2013-1.45175,2.53404-1.94273,3.99907-.49195,1.46585-.83739,2.99018-1.03826,4.57504-.20106,1.58528-.30149,3.12329-.30149,4.61153Z"/>
      <path class="cls-1" d="M406.26866,209.47996c-.04511-.30747-.24597-.46143-.60298-.46143-.35797,0-1.96567,3.81841-4.82329,11.45436-2.85858,7.5333-4.53337,11.78749-5.02435,12.76078-.93783,1.53736-1.87584,2.30582-2.81367,2.30582-.98293,0-1.89878-.97285-2.74658-2.92121-.5359-1.17813-2.05473-5.43143-4.55534-12.76078-2.54572-7.27627-4.08653-10.91551-4.62243-10.91551-.26795,0-.46901.28226-.60298.84544-.98293,3.58792-1.47373,10.96771-1.47373,22.13937,0,2.92077-.29108,4.88108-.87093,5.88047-.58101.9994-1.6077,1.49932-3.08162,1.49932-1.51883,0-2.27758-.8711-2.27758-2.61374,0-.05043.24482-.97285.73677-2.7677.26795-.8189.46901-1.69088.60298-2.6133.13398-.92286.24501-1.89571.33503-2.92121.22284-3.79187.39036-7.12275.50236-9.99353.11104-2.86945.16752-5.30402.16752-7.30281s-.02313-3.69012-.06708-5.07352c-.04492-1.38385-.112-2.485-.20087-3.30566l-.20106-1.46039c-.09002-.66538-.15691-1.21706-.20087-1.65283-.04511-.43489-.06708-.78085-.06708-1.03789,0-.46099.24501-.93436.73696-1.4219.49079-.48665,1.24973-.73041,2.27758-.73041,2.23285,0,4.13048,1.20467,5.69423,3.61314,1.07199,1.58913,3.0367,5.89374,5.89529,12.9143,2.76856,6.91836,4.44334,10.37798,5.02435,10.37798l.60298-1.07638,4.42137-10.301c1.42881-3.22869,2.58967-5.8672,3.48354-7.91776.89272-2.04923,1.73011-3.65118,2.51218-4.80454.78072-1.15291,1.6077-1.93376,2.47863-2.34476.87093-.40923,1.95314-.61495,3.24894-.61495.75893,0,1.40683.20572,1.94273.61495.53609.411.80404.97418.80404,1.69132l-.06708,1.15335-.20087,1.30643c-.04511.46143-.07865.96091-.10063,1.49932-.02294.53797-.03335,1.08921-.03335,1.65283v6.99534c0,.61495.01041,1.37146.03335,2.26778.02198.8972.03354,1.93465.03354,3.11322v7.22583c0,4.97133.20106,8.22523.60298,9.76304l.40193,1.30643c.35701,1.23033.5359,1.99879.5359,2.30627,0,1.84484-1.1838,2.7677-3.55043,2.7677-1.38486,0-2.38977-.61495-3.01473-1.84528-.62592-1.22989-.93783-2.5872-.93783-4.07412l.13398-6.07292c0-10.19748-.35797-16.34738-1.0718-18.44925Z"/>
      <path class="cls-1" d="M427.16954,197.1062c2.50061,0,3.75169,1.08104,3.75169,3.24271l-.26795,2.37771c-.04511.52912-.07865,1.1167-.10063,1.76524-.02313.64854-.03354,1.4049-.03354,2.26948v6.41285c0,4.46723.11104,8.11797.33503,10.95182.22284,2.83468.6585,5.0685,1.30621,6.70105.64694,1.63338,1.56298,2.75008,2.74697,3.35011,1.18245.60127,2.71304.90066,4.58869.90066,2.18755,0,3.94099-.61247,5.25876-1.83698,1.317-1.22493,2.2662-2.74925,2.84721-4.57545.89291-2.73806,1.33975-9.15091,1.33975-19.23814,0-3.74653-.06708-6.29218-.20087-7.63737-.09022-.72069-.15691-1.29708-.20087-1.72958-.04511-.43208-.06708-.74392-.06708-.93632,0-1.48866.98158-2.23382,2.94745-2.23382h.87093c.93802,0,1.7303.44494,2.37801,1.33316.64694.88905.97156,1.81335.97156,2.77372v1.00889c0,.38523-.20087,1.27345-.60298,2.66591-.49195,1.34519-.73677,2.59375-.73677,3.74695-.09022.67301-.13417,1.78971-.13417,3.35011v7.02532c0,2.35407-.03354,4.32292-.10024,5.9082-.06708,1.58528-.20125,2.9541-.40212,4.10688-.20087,1.15319-.48038,2.16167-.83739,3.02625-.35778.86458-.84896,1.72917-1.47392,2.59417-2.41155,3.45834-6.69914,5.18751-12.86199,5.18751-7.99494,0-12.59442-4.01026-13.80039-12.03286-.26795-2.01736-.40173-4.9951-.40173-8.93445,0-3.98621-.03354-7.06098-.10063-9.22265s-.34641-3.91447-.83739-5.25966c-.26795-.67218-.45841-1.24857-.56944-1.72917-.112-.47977-.16732-.865-.16732-1.15319,0-2.78492,1.51748-4.17903,4.55515-4.17903Z"/>
      <path class="cls-1" d="M490.40922,200.42065c0-1.92033,1.13888-2.88195,3.41665-2.88195,1.02669,0,1.88606.37279,2.57926,1.1167.69166.74557,1.03826,1.59772,1.03826,2.55809,0,.91269-.24597,2.08952-.73677,3.53049-.224.72028-.40212,1.46585-.5359,2.23341-.13417.76921-.24597,1.56164-.33503,2.37771-.09022.81731-.1573,1.95807-.20125,3.42268-.04472,1.46585-.0667,3.25474-.0667,5.36789v1.29708c-.04511.43208-.06708,1.23696-.06708,2.41379v4.64719c0,3.79505-.13417,6.96561-.40212,9.51084-.17889,1.58528-.93763,2.37771-2.27738,2.37771-1.42997,0-3.10475-1.32031-5.02435-3.96257-.5359-.72069-3.28287-5.23519-8.24014-13.54598-4.95727-8.21417-7.88274-12.32105-8.77565-12.32105-.62612,0-.93802,6.05251-.93802,18.1571,0,.67342.02198,1.39412.06708,2.16167.04395.7688.11104,1.61016.20087,2.52202l.20125,2.9541c0,1.2494-.44723,2.30556-1.34014,3.17014-.89368.86458-1.96548,1.29708-3.2154,1.29708-1.69792,0-2.54572-.64854-2.54572-1.94563,0-.86458.24482-1.89669.73677-3.09799.75913-2.16167,1.13888-7.15677,1.13888-14.98696v-1.36924l.13417-2.66591v-6.62848c0-2.64144-.20087-4.82757-.60298-6.55716-.13417-.43208-.23441-.80363-.30149-1.1167-.06708-.31183-.14535-.56395-.23441-.75636-.04511-.24009-.09022-.45614-.13417-.64854,0-1.00889.69204-1.51313,2.0769-1.51313,2.76856,0,5.35939,1.56164,7.77094,4.68327,2.50061,3.07477,5.7164,7.83019,9.64659,14.26668,3.97453,6.43732,6.1401,9.65473,6.49827,9.65473.67007,0,1.00472-5.81117,1.00472-17.43641,0-1.53676-.02275-2.84629-.0667-3.92691-.04511-1.08104-.11219-1.93319-.20125-2.55809-.08983-.47936-.15691-.93674-.20087-1.36882-.04511-.1443-.06708-.28819-.06708-.4325Z"/>
      <path class="cls-1" d="M511.9127,239.61721h-1.67478c-.31306,0-.74833-.03608-1.30659-.10781-.55865-.07215-1.11652-.20402-1.67478-.39642-.55865-.19158-1.03826-.45614-1.43999-.79243-.40212-.33547-.60298-.74433-.60298-1.22493,0-.62366.3119-1.60891.93763-2.9541.71402-1.44139,1.16086-2.95451,1.34014-4.53938.08867-.86458.16732-2.30597.23441-4.32334s.10024-4.65839.10024-7.92556c0-3.26593-.02275-5.88373-.0667-7.85383-.04511-1.96926-.11219-3.31445-.20125-4.03514-.17889-1.44097-.62573-2.71318-1.33975-3.81868-.66968-1.10426-1.00472-2.01736-1.00472-2.73806,0-.57639.23441-1.03211.70322-1.36882.4692-.33547,1.01551-.60003,1.64124-.79243.62496-.19158,1.26149-.32427,1.90958-.39642.64655-.07215,1.14929-.10823,1.50707-.10823h1.13888c1.3837,0,2.4555.26456,3.2154.79285.67007.57639,1.0051,1.15278,1.0051,1.72917v.43208c0,.28819-.24597,1.00889-.73715,2.16167-.5359,1.00889-.87055,2.40259-1.00472,4.17903-.08983.86458-.16732,2.43867-.23441,4.71935-.06708,2.28234-.10063,5.29615-.10063,9.04268,0,3.74695.01041,6.65377.03354,8.71841.02198,2.06588.05552,3.29081.10063,3.67479.13378.81731.46882,1.77768,1.00472,2.88195.5359,1.05699.80385,1.94563.80385,2.66591,0,.67342-.42486,1.23737-1.27267,1.69351-.84896.45696-1.85367.6842-3.01453.6842Z"/>
      <path class="cls-1" d="M526.51655,207.77024v-.72069c-.04511-.23968-.06708-.55151-.06708-.93674v-1.44097c0-1.24857-.24597-2.4735-.73715-3.67479-.49195-1.34394-.73677-2.06464-.73677-2.16125v-.50465c0-.81607.60298-1.32031,1.80895-1.51313,2.41155-.43208,5.56025-.64813,9.44572-.64813h2.07652c6.07341,0,10.75193,1.83698,14.0348,5.51178,3.28248,3.67479,4.92373,8.75449,4.92373,15.23908l-.06708.79243c0,1.72958-.14535,3.61508-.43527,5.6565-.29108,2.04224-.8825,4.02353-1.77541,5.94428-.89368,1.92157-2.15517,3.69926-3.78484,5.33181-1.63083,1.63338-3.76325,2.93046-6.39765,3.89084-2.14399.7688-4.9804,1.15278-8.50809,1.15278h-1.33975c-1.74187,0-3.28248-.03608-4.62223-.10823-1.33975-.07174-2.50177-.2036-3.48374-.39601-1.16163-.24009-1.74148-.74433-1.74148-1.51313,0-.52829.22284-1.29708.66968-2.30597.44607-1.15278.69204-2.32919.73715-3.53049.08867-.62366.13378-1.99248.13378-4.10688v-14.33842l-.13378-5.62001ZM550.1644,218.79421v-2.16167c0-2.01736-.224-3.99907-.67007-5.94428-.44684-1.94563-1.16202-3.67479-2.1436-5.18792-.98313-1.51313-2.24423-2.73806-3.78523-3.67438-1.54062-.93674-3.38311-1.40531-5.52671-1.40531h-1.27267c-2.36798,0-3.6846.52912-3.95255,1.58528-.13417.57639-.20087,3.55537-.20087,8.93445v10.80793l-.06708,1.94521v4.82757l.06708.50465v1.36882l.0667,1.94563c0,1.00847.30149,1.72917.90448,2.16125.60298.4325,1.84249.64854,3.71814.64854l.40173-.07215c2.23266,0,4.14224-.44328,5.72796-1.33275,1.58457-.88822,2.88037-2.08952,3.88547-3.60264,1.00472-1.51313,1.7303-3.25349,2.17714-5.224.44607-1.96885.67007-4.00985.67007-6.12424Z"/>
      <path class="cls-1" d="M596.38713,234.42971v.57639c0,1.53759-.44684,2.58256-1.33975,3.13407-.89368.55275-1.96587.82851-3.2154.82851-.58101,0-1.02785-.03566-1.33975-.10781-.31306-.07215-.58101-.27575-.80424-.61247-.224-.33547-.43527-.86458-.63614-1.58528-.20125-.72028-.45841-1.72917-.77031-3.02625-.31306-1.39246-.64809-2.54524-1.0051-3.45834-.35778-.91186-.79344-1.64499-1.30621-2.19774-.51392-.55151-1.16202-.94793-1.94273-1.18886-.78187-.23968-1.79854-.36035-3.04808-.36035-2.36798,0-4.19853.09703-5.49317.28819-1.29618.19282-2.27777.54073-2.94784,1.04497-.66968.50424-1.16202,1.2013-1.47392,2.08952-.31267.88946-.66968,2.0298-1.0718,3.42226-.31306,1.00889-.5359,2.01778-.66968,3.02625-.09022.96162-.25754,1.64623-.50274,2.05344-.24597.40886-.88211.61247-1.90919.61247-1.02785,0-1.84211-.45572-2.44509-1.36882-.60298-.91186-.90448-1.92075-.90448-3.02625,0-1.15278.35701-2.25704,1.07219-3.31445.35662-.52787.65812-1.04455.90409-1.5492.2452-.50424.45764-.9724.63653-1.4049.17812-.43208.60298-1.74036,1.27267-3.92691.67007-2.1853,1.65204-5.24722,2.94784-9.18657,1.24992-3.93811,2.28818-7.12069,3.11516-9.54692.82583-2.42498,1.46197-4.14296,1.90919-5.15184.8478-1.92075,1.58457-3.14568,2.21068-3.67479.62496-.52787,1.40683-.79243,2.34447-.79243.93802,0,1.79739.36035,2.57926,1.08063.78072.72069,1.61811,2.1144,2.51218,4.17903l8.97691,27.23586c.3119.96162.78072,1.99414,1.40683,3.0984.62496,1.10551.93763,2.04224.93763,2.81021ZM580.37644,222.0365c2.94745,0,4.42137-.28819,4.42137-.86458v-.21604c0-.09579-.03354-.28819-.10063-.57639-.0667-.28819-.14535-.69581-.23441-1.22493l-.46882-1.80132c0-.04727-.04511-.21646-.13417-.50465-.04472-.09537-.31267-1.34394-.80385-3.74653-.5359-2.30556-1.20558-4.49086-2.00943-6.55674-.80424-2.01736-1.27305-3.02625-1.40683-3.02625-.13417,0-.4692.74516-1.0051,2.23341-3.2154,8.64667-4.8231,13.76203-4.8231,15.34731v.21604c0,.48102.98158.72069,2.94745.72069h3.61752Z"/>
      <path class="cls-1" d="M605.22987,207.77024v-.72069c-.04511-.23968-.06708-.55151-.06708-.93674v-1.44097c0-1.24857-.24597-2.4735-.73715-3.67479-.49195-1.34394-.73677-2.06464-.73677-2.16125v-.50465c0-.81607.60298-1.32031,1.80895-1.51313,2.41155-.43208,5.56025-.64813,9.44572-.64813h2.07652c6.07341,0,10.75193,1.83698,14.0348,5.51178,3.28248,3.67479,4.92373,8.75449,4.92373,15.23908l-.06708.79243c0,1.72958-.14535,3.61508-.43527,5.6565-.29108,2.04224-.8825,4.02353-1.77541,5.94428-.89368,1.92157-2.15517,3.69926-3.78484,5.33181-1.63083,1.63338-3.76325,2.93046-6.39765,3.89084-2.14399.7688-4.9804,1.15278-8.50809,1.15278h-1.33975c-1.74187,0-3.28248-.03608-4.62223-.10823-1.33975-.07174-2.50177-.2036-3.48374-.39601-1.16163-.24009-1.74148-.74433-1.74148-1.51313,0-.52829.22284-1.29708.66968-2.30597.44607-1.15278.69204-2.32919.73715-3.53049.08867-.62366.13378-1.99248.13378-4.10688v-14.33842l-.13378-5.62001ZM628.87772,218.79421v-2.16167c0-2.01736-.224-3.99907-.67007-5.94428-.44684-1.94563-1.16202-3.67479-2.1436-5.18792-.98313-1.51313-2.24423-2.73806-3.78523-3.67438-1.54062-.93674-3.38311-1.40531-5.52671-1.40531h-1.27267c-2.36798,0-3.6846.52912-3.95255,1.58528-.13417.57639-.20087,3.55537-.20087,8.93445v10.80793l-.06708,1.94521v4.82757l.06708.50465v1.36882l.0667,1.94563c0,1.00847.30149,1.72917.90448,2.16125.60298.4325,1.84249.64854,3.71814.64854l.40173-.07215c2.23266,0,4.14224-.44328,5.72796-1.33275,1.58457-.88822,2.88037-2.08952,3.88547-3.60264,1.00472-1.51313,1.7303-3.25349,2.17714-5.224.44607-1.96885.67007-4.00985.67007-6.12424Z"/>
      <path class="cls-1" d="M661.43461,207.77024v-.72069c-.04511-.23968-.06708-.55151-.06708-.93674v-1.44097c0-1.24857-.24597-2.4735-.73715-3.67479-.49195-1.34394-.73677-2.06464-.73677-2.16125v-.50465c0-.81607.60298-1.32031,1.80895-1.51313,2.41155-.43208,5.56025-.64813,9.44572-.64813h2.07652c6.07341,0,10.75193,1.83698,14.0348,5.51178,3.28248,3.67479,4.92373,8.75449,4.92373,15.23908l-.06708.79243c0,1.72958-.14535,3.61508-.43527,5.6565-.29108,2.04224-.8825,4.02353-1.77541,5.94428-.89368,1.92157-2.15517,3.69926-3.78484,5.33181-1.63083,1.63338-3.76325,2.93046-6.39765,3.89084-2.14399.7688-4.9804,1.15278-8.50809,1.15278h-1.33975c-1.74187,0-3.28248-.03608-4.62223-.10823-1.33975-.07174-2.50177-.2036-3.48374-.39601-1.16163-.24009-1.74148-.74433-1.74148-1.51313,0-.52829.22284-1.29708.66968-2.30597.44607-1.15278.69204-2.32919.73715-3.53049.08867-.62366.13378-1.99248.13378-4.10688v-14.33842l-.13378-5.62001ZM685.08246,218.79421v-2.16167c0-2.01736-.224-3.99907-.67007-5.94428-.44684-1.94563-1.16202-3.67479-2.1436-5.18792-.98313-1.51313-2.24423-2.73806-3.78523-3.67438-1.54062-.93674-3.38311-1.40531-5.52671-1.40531h-1.27267c-2.36798,0-3.6846.52912-3.95255,1.58528-.13417.57639-.20087,3.55537-.20087,8.93445v10.80793l-.06708,1.94521v4.82757l.06708.50465v1.36882l.0667,1.94563c0,1.00847.30149,1.72917.90448,2.16125.60298.4325,1.84249.64854,3.71814.64854l.40173-.07215c2.23266,0,4.14224-.44328,5.72796-1.33275,1.58457-.88822,2.88037-2.08952,3.88547-3.60264,1.00472-1.51313,1.7303-3.25349,2.17714-5.224.44607-1.96885.67007-4.00985.67007-6.12424Z"/>
      <path class="cls-1" d="M714.156,214.47087l4.28759-.79243c2.05338,0,3.08162,1.00889,3.08162,3.02625,0,1.2013-.23479,2.16167-.70361,2.88195-.46882.72069-1.03826,1.08104-1.70833,1.08104-.35778,0-.7599-.03608-1.20558-.10823-.44723-.07215-.98313-.1555-1.60809-.25212-.62573-.1443-1.17204-.23968-1.64124-.28819-.46882-.04727-.8825-.07215-1.23912-.07215-1.20597,0-2.18871.07215-2.94784.21604-.7599.1443-1.35132.44494-1.77502.90066-.42525.45738-.71518,1.10551-.87093,1.94563-.15691.84095-.23441,1.95765-.23441,3.35052,0,2.83468.34544,4.93539,1.03826,6.30421.69204,1.36924,2.08731,2.05385,4.18696,2.05385,2.81367,0,5.2923-.21646,7.4359-.64854,2.00982-.4325,3.23776-.64854,3.6846-.64854,1.3837,0,2.07652.57639,2.07652,1.72917v.72069c0,1.77768-1.02785,2.88195-3.08162,3.31445-1.42958.3363-5.00199.50424-10.71839.50424h-1.0718c-4.64537,0-7.70385-.23968-9.17777-.72069-1.51903-.43208-2.27777-1.17642-2.27777-2.23341v-.86458l.67007-2.59417c.44568-1.72917.66968-5.4757.66968-11.24001l.4692-13.76203c0-2.73806-.06708-4.41871-.20125-5.04362-.04472-.52787-.224-1.22493-.5359-2.08952-.13378-.4325-.24597-.8397-.33503-1.22493-.08983-.38398-.13378-.76797-.13378-1.15278,0-1.77644,4.59949-2.66591,13.80001-2.66591h6.3641c3.12557,0,4.6897,1.15278,4.6897,3.45834,0,.72069-.21282,1.27345-.63653,1.65743-.42486.38481-.94958.57639-1.57454.57639-.35778,0-.81542-.02364-1.37329-.07215-.55865-.04727-1.26226-.11942-2.11006-.21604-1.65281-.1443-3.50648-.21646-5.56025-.21646-1.02785,0-1.89878.13311-2.6128.39642-.71479.26456-1.30621.74516-1.77502,1.44097-.4692.69706-.81542,1.62135-1.03826,2.77413-.22438,1.15278-.33503,2.61863-.33503,4.39507,0,1.53801.42371,2.61863,1.27267,3.24229.8478.62491,2.43353.93674,4.7564.93674Z"/>
      <path class="cls-1" d="M762.25439,240.12186c-.89368,0-1.85367-.07215-2.88037-.21646-1.02823-.14389-2.02138-.32427-2.98138-.54031-.96076-.21604-1.84211-.45572-2.64596-.72069-.80385-.26331-1.42997-.54031-1.87565-.82851-.84896-.52787-1.51903-1.29667-2.00982-2.30556-.49195-1.00889-.73715-1.9929-.73715-2.9541,0-.91186.20125-1.62135.60298-2.12559.40212-.50424.8478-.75677,1.33975-.75677.40212,0,1.29503.60127,2.67989,1.80132,1.29464,1.2013,2.60124,2.08952,3.91901,2.66632,1.31662.57639,2.95786.86458,4.92373.86458,2.00982,0,3.61752-.55192,4.82349-1.65743,1.20558-1.10426,1.80857-2.68954,1.80857-4.75542,0-1.00889-.16732-1.87347-.50236-2.59375-.33503-.72069-.8825-1.39287-1.64124-2.01736-.7599-.62408-1.73146-1.2722-2.91429-1.94563-1.18361-.67218-2.64596-1.44097-4.38783-2.30556-1.38486-.72069-2.6795-1.45258-3.88547-2.19774-1.20597-.74433-2.26736-1.60891-3.18186-2.59375-.91604-.98401-1.63083-2.13679-2.14399-3.45875-.51392-1.32031-.77031-2.89314-.77031-4.71935,0-3.26593,1.20597-5.9194,3.61752-7.96164,2.41155-2.04141,5.91726-3.06233,10.51752-3.06233,2.81367,0,5.15852.4325,7.03417,1.29708.89291.43208,1.62968,1.14158,2.21068,2.12559.57985.98484.87093,1.8855.87093,2.70157,0,2.01778-.62612,3.02625-1.87565,3.02625-.31306,0-1.47392-.72028-3.48374-2.16125-2.05454-1.44139-4.08633-2.16167-6.09615-2.16167s-3.64065.50424-4.89018,1.51313c-1.25108,1.00847-1.87604,2.42623-1.87604,4.25118,0,.91269.14458,1.70553.43566,2.37771.28993.67301.78072,1.32155,1.47392,1.94521.69166.62491,1.62968,1.27345,2.81328,1.94563,1.18284.67301,2.66832,1.44097,4.45491,2.30556,1.42881.67301,2.78013,1.3937,4.05318,2.16167,1.27267.7688,2.39998,1.65702,3.38311,2.66591.98158,1.00847,1.76346,2.19733,2.34447,3.56657.57985,1.36882.87093,2.99018.87093,4.86365,0,.86458-.08983,1.69309-.26795,2.48552-.17889.79285-.42486,1.57408-.73677,2.34163-1.11691,2.44986-2.82523,4.25118-5.12498,5.40396-2.30052,1.15278-4.65578,1.72958-7.06733,1.72958h-.20125Z"/>
      <path class="cls-1" d="M786.77317,197.1062c2.50061,0,3.75169,1.08104,3.75169,3.24271l-.26795,2.37771c-.04511.52912-.07865,1.1167-.10063,1.76524-.02313.64854-.03354,1.4049-.03354,2.26948v6.41285c0,4.46723.11104,8.11797.33503,10.95182.22284,2.83468.6585,5.0685,1.30621,6.70105.64694,1.63338,1.56298,2.75008,2.74697,3.35011,1.18245.60127,2.71304.90066,4.58869.90066,2.18755,0,3.94099-.61247,5.25876-1.83698,1.317-1.22493,2.2662-2.74925,2.84721-4.57545.89291-2.73806,1.33975-9.15091,1.33975-19.23814,0-3.74653-.06708-6.29218-.20087-7.63737-.09022-.72069-.15691-1.29708-.20087-1.72958-.04511-.43208-.06708-.74392-.06708-.93632,0-1.48866.98158-2.23382,2.94745-2.23382h.87093c.93802,0,1.7303.44494,2.37801,1.33316.64694.88905.97156,1.81335.97156,2.77372v1.00889c0,.38523-.20087,1.27345-.60298,2.66591-.49195,1.34519-.73677,2.59375-.73677,3.74695-.09022.67301-.13417,1.78971-.13417,3.35011v7.02532c0,2.35407-.03354,4.32292-.10024,5.9082-.06708,1.58528-.20125,2.9541-.40212,4.10688-.20087,1.15319-.48038,2.16167-.83739,3.02625-.35778.86458-.84896,1.72917-1.47392,2.59417-2.41155,3.45834-6.69914,5.18751-12.86199,5.18751-7.99494,0-12.59442-4.01026-13.80039-12.03286-.26795-2.01736-.40173-4.9951-.40173-8.93445,0-3.98621-.03354-7.06098-.10063-9.22265s-.3466-3.91447-.83739-5.25966c-.26795-.67218-.45841-1.24857-.56944-1.72917-.11181-.47977-.16732-.865-.16732-1.15319,0-2.78492,1.51748-4.17903,4.55515-4.17903Z"/>
      <path class="cls-1" d="M837.28426,214.47087l4.28759-.79243c2.05338,0,3.08162,1.00889,3.08162,3.02625,0,1.2013-.23479,2.16167-.70361,2.88195-.46882.72069-1.03826,1.08104-1.70833,1.08104-.35778,0-.7599-.03608-1.20558-.10823-.44723-.07215-.98313-.1555-1.60809-.25212-.62573-.1443-1.17204-.23968-1.64124-.28819-.46882-.04727-.8825-.07215-1.23912-.07215-1.20597,0-2.18871.07215-2.94784.21604-.7599.1443-1.35132.44494-1.77502.90066-.42525.45738-.71518,1.10551-.87093,1.94563-.15691.84095-.23441,1.95765-.23441,3.35052,0,2.83468.34544,4.93539,1.03826,6.30421.69204,1.36924,2.08731,2.05385,4.18696,2.05385,2.81367,0,5.2923-.21646,7.4359-.64854,2.00982-.4325,3.23776-.64854,3.6846-.64854,1.3837,0,2.07652.57639,2.07652,1.72917v.72069c0,1.77768-1.02785,2.88195-3.08162,3.31445-1.42958.3363-5.00199.50424-10.71839.50424h-1.0718c-4.64537,0-7.70385-.23968-9.17777-.72069-1.51903-.43208-2.27777-1.17642-2.27777-2.23341v-.86458l.67007-2.59417c.44568-1.72917.66968-5.4757.66968-11.24001l.4692-13.76203c0-2.73806-.06708-4.41871-.20125-5.04362-.04472-.52787-.224-1.22493-.5359-2.08952-.13378-.4325-.24597-.8397-.33503-1.22493-.08983-.38398-.13378-.76797-.13378-1.15278,0-1.77644,4.59949-2.66591,13.80001-2.66591h6.3641c3.12557,0,4.6897,1.15278,4.6897,3.45834,0,.72069-.21282,1.27345-.63653,1.65743-.42486.38481-.94958.57639-1.57454.57639-.35778,0-.81542-.02364-1.37329-.07215-.55865-.04727-1.26226-.11942-2.11006-.21604-1.65281-.1443-3.50648-.21646-5.56025-.21646-1.02785,0-1.89878.13311-2.6128.39642-.71479.26456-1.30621.74516-1.77502,1.44097-.4692.69706-.81542,1.62135-1.03826,2.77413-.22438,1.15278-.33503,2.61863-.33503,4.39507,0,1.53801.42371,2.61863,1.27267,3.24229.8478.62491,2.43353.93674,4.7564.93674Z"/>
      <path class="cls-1" d="M883.9762,200.42065c0-1.92033,1.13888-2.88195,3.41665-2.88195,1.02669,0,1.88606.37279,2.57926,1.1167.69166.74557,1.03826,1.59772,1.03826,2.55809,0,.91269-.24597,2.08952-.73677,3.53049-.224.72028-.40212,1.46585-.5359,2.23341-.13417.76921-.24597,1.56164-.33503,2.37771-.09022.81731-.1573,1.95807-.20125,3.42268-.04472,1.46585-.0667,3.25474-.0667,5.36789v1.29708c-.04511.43208-.06708,1.23696-.06708,2.41379v4.64719c0,3.79505-.13417,6.96561-.40212,9.51084-.17889,1.58528-.93763,2.37771-2.27738,2.37771-1.42997,0-3.10475-1.32031-5.02435-3.96257-.5359-.72069-3.28287-5.23519-8.24014-13.54598-4.95727-8.21417-7.88274-12.32105-8.77565-12.32105-.62612,0-.93802,6.05251-.93802,18.1571,0,.67342.02198,1.39412.06708,2.16167.04395.7688.11104,1.61016.20087,2.52202l.20125,2.9541c0,1.2494-.44723,2.30556-1.34014,3.17014-.89368.86458-1.96548,1.29708-3.2154,1.29708-1.69792,0-2.54572-.64854-2.54572-1.94563,0-.86458.24482-1.89669.73677-3.09799.75913-2.16167,1.13888-7.15677,1.13888-14.98696v-1.36924l.13417-2.66591v-6.62848c0-2.64144-.20087-4.82757-.60298-6.55716-.13417-.43208-.23441-.80363-.30149-1.1167-.06708-.31183-.14535-.56395-.23441-.75636-.04511-.24009-.09022-.45614-.13417-.64854,0-1.00889.69204-1.51313,2.0769-1.51313,2.76856,0,5.35939,1.56164,7.77094,4.68327,2.50061,3.07477,5.7164,7.83019,9.64659,14.26668,3.97453,6.43732,6.1401,9.65473,6.49827,9.65473.67007,0,1.00472-5.81117,1.00472-17.43641,0-1.53676-.02275-2.84629-.0667-3.92691-.04511-1.08104-.11219-1.93319-.20125-2.55809-.08983-.47936-.15691-.93674-.20087-1.36882-.04511-.1443-.06708-.28819-.06708-.4325Z"/>
      <path class="cls-1" d="M932.41039,216.48865v2.16125c0,1.44139-.12337,3.11084-.36858,5.00795-.24597,1.89794-.73677,3.79505-1.47353,5.69216-.73715,1.89794-1.78698,3.68682-3.1487,5.36789-1.36288,1.6819-3.13829,3.05072-5.32584,4.10688-2.41155,1.15278-4.82349,1.72917-7.23504,1.72917h-.60298c-2.76972,0-5.18127-.57639-7.23504-1.72917-2.05454-1.15278-3.77443-2.70198-5.15814-4.64761-1.38486-1.94521-2.42312-4.17903-3.11516-6.70063-.69281-2.52202-1.03826-5.12696-1.03826-7.81775v-1.44097c0-2.88236.33465-5.66728,1.00472-8.35806.67007-2.68954,1.70833-5.07969,3.11516-7.16921,1.40683-2.08952,3.19265-3.77058,5.35939-5.04362,2.16558-1.2722,4.72286-1.90955,7.67031-1.90955h1.33975c1.96471,0,4.01964.50424,6.16324,1.51313,1.74187.81731,3.24894,1.90955,4.52199,3.27837,1.27267,1.36882,2.32172,2.91802,3.14832,4.64719.82621,1.72958,1.42881,3.56657,1.80895,5.51219.37899,1.94521.56944,3.87964.56944,5.80039ZM904.00614,217.56928v1.58528c0,4.61112.82583,8.38253,2.47863,11.31216.93802,1.72917,2.12085,3.06233,3.55043,3.99865,1.42881.93674,2.74658,1.40531,3.95255,1.40531h1.33975c1.96471,0,3.59477-.58759,4.89057-1.76524,1.29464-1.17642,2.3329-2.64144,3.11516-4.39549.78072-1.7528,1.32818-3.6383,1.64124-5.65608.3119-2.01736.46882-3.86596.46882-5.54785v-1.29708c0-1.10426-.06708-2.37771-.20087-3.81868-.13417-1.44097-.41368-2.89356-.83739-4.359-.42525-1.46502-1.01667-2.85748-1.77541-4.17945-.7599-1.32031-1.74187-2.38891-2.94745-3.20622-1.42997-.96037-2.88075-1.44097-4.35467-1.44097h-.93763c-1.2958,0-2.63593.40886-4.01964,1.22493-1.25069.7688-2.27777,1.75405-3.08162,2.9541-.80385,1.2013-1.45156,2.53404-1.94273,3.99907-.49195,1.46585-.83739,2.99018-1.03826,4.57504-.20087,1.58528-.30149,3.12329-.30149,4.61153Z"/>
      <path class="cls-1" d="M952.44033,240.12186c-.89368,0-1.85367-.07215-2.88037-.21646-1.02823-.14389-2.02138-.32427-2.98138-.54031-.96076-.21604-1.84211-.45572-2.64596-.72069-.80385-.26331-1.42997-.54031-1.87565-.82851-.84896-.52787-1.51903-1.29667-2.00982-2.30556-.49195-1.00889-.73715-1.9929-.73715-2.9541,0-.91186.20125-1.62135.60298-2.12559.40212-.50424.8478-.75677,1.33975-.75677.40212,0,1.29503.60127,2.67989,1.80132,1.29464,1.2013,2.60124,2.08952,3.91901,2.66632,1.31662.57639,2.95786.86458,4.92373.86458,2.00982,0,3.61752-.55192,4.82349-1.65743,1.20558-1.10426,1.80857-2.68954,1.80857-4.75542,0-1.00889-.16732-1.87347-.50236-2.59375-.33503-.72069-.8825-1.39287-1.64124-2.01736-.7599-.62408-1.73146-1.2722-2.91429-1.94563-1.18361-.67218-2.64596-1.44097-4.38783-2.30556-1.38486-.72069-2.6795-1.45258-3.88547-2.19774-1.20597-.74433-2.26736-1.60891-3.18186-2.59375-.91604-.98401-1.63083-2.13679-2.14399-3.45875-.51392-1.32031-.77031-2.89314-.77031-4.71935,0-3.26593,1.20597-5.9194,3.61752-7.96164,2.41155-2.04141,5.91726-3.06233,10.51752-3.06233,2.81367,0,5.15852.4325,7.03417,1.29708.89291.43208,1.62968,1.14158,2.21068,2.12559.57985.98484.87093,1.8855.87093,2.70157,0,2.01778-.62612,3.02625-1.87565,3.02625-.31306,0-1.47392-.72028-3.48374-2.16125-2.05454-1.44139-4.08633-2.16167-6.09615-2.16167s-3.64065.50424-4.89018,1.51313c-1.25108,1.00847-1.87604,2.42623-1.87604,4.25118,0,.91269.14458,1.70553.43566,2.37771.28993.67301.78072,1.32155,1.47392,1.94521.69166.62491,1.62968,1.27345,2.81328,1.94563,1.18284.67301,2.66832,1.44097,4.45491,2.30556,1.42881.67301,2.78013,1.3937,4.05318,2.16167,1.27267.7688,2.39998,1.65702,3.38311,2.66591.98158,1.00847,1.76346,2.19733,2.34447,3.56657.57985,1.36882.87093,2.99018.87093,4.86365,0,.86458-.08983,1.69309-.26795,2.48552-.17889.79285-.42486,1.57408-.73677,2.34163-1.11691,2.44986-2.82523,4.25118-5.12498,5.40396-2.30052,1.15278-4.65578,1.72958-7.06733,1.72958h-.20125Z"/>
    </g>
    <path class="cls-1" d="M868.62649,188.57696h.83842c.91708,0,2.49304.49929,4.72846,1.49617,2.19438,1.03848,3.69055,1.55659,4.48908,1.55659.75749,0,1.73613-.41893,2.93306-1.25735,1.19694-.83785,1.95499-1.25678,2.27475-1.25678.75749,0,1.13709.43945,1.13709,1.31663,0,.6794-.17954,1.33772-.53862,1.97551-.35908.63894-.83785,1.19694-1.43632,1.67571-.59904.47934-1.26761.86806-2.00572,1.1673-.73868.29923-1.48705.44914-2.24454.44914h-.23939c-1.11771,0-2.83389-.5181-5.14739-1.55659-2.43434-1.03677-3.93108-1.55602-4.48908-1.55602-.59904,0-1.55659.41893-2.87321,1.25678-1.2374.83842-1.95556,1.25735-2.15505,1.25735-.75863,0-1.13709-.41893-1.13709-1.25735,0-.59847.16928-1.21631.50841-1.85525.33856-.6378.7877-1.20662,1.34684-1.70592.55857-.49872,1.18725-.90739,1.88546-1.22714.69764-.31918,1.40668-.47877,2.12484-.47877Z"/>
  </g>
</svg>