<?xml version="1.0" encoding="UTF-8" standalone="no"?>
<svg xmlns="http://www.w3.org/2000/svg" width="219" height="249" viewBox="0 0 219 249">
  <g fill="#1c0932" fill-rule="evenodd" stroke="none">
    <path d="M 107 215 L 105 217 L 106 224 L 103 227 L 103 232 L 104 234 L 108 236 L 112 236 L 113 235 L 121 236 L 119 233 L 120 225 L 117 225 L 116 227 L 114 227 L 113 226 L 113 224 L 115 223 L 115 221 L 116 220 L 115 216 L 113 215 Z M 108 227 L 110 227 L 112 229 L 112 232 L 111 233 L 108 233 L 106 231 L 106 229 Z M 108 218 L 109 217 L 111 217 L 112 218 L 112 220 L 111 221 L 109 221 L 108 220 Z M 138 215 L 133 214 L 132 215 L 128 215 L 126 217 L 126 236 L 129 236 L 129 228 L 130 227 L 138 227 L 138 224 L 130 224 L 129 223 L 129 219 L 131 217 L 139 217 Z M 80 214 L 79 215 L 79 236 L 82 236 L 83 222 L 86 223 L 88 228 L 91 223 L 94 222 L 95 236 L 98 236 L 98 214 L 93 215 L 90 220 L 87 220 L 84 215 Z M 181 187 L 181 208 L 192 208 L 194 207 L 197 203 L 197 192 L 196 190 L 192 187 Z M 185 189 L 189 189 L 190 190 L 191 190 L 193 192 L 193 193 L 194 194 L 194 201 L 193 202 L 193 203 L 191 205 L 185 205 L 184 204 L 184 190 Z M 165 187 L 163 190 L 158 208 L 161 208 L 163 203 L 171 203 L 173 208 L 176 208 L 170 188 L 169 187 Z M 166 192 L 168 192 L 169 193 L 169 196 L 170 197 L 170 200 L 169 201 L 165 201 L 164 200 L 164 196 L 165 195 L 165 193 Z M 139 187 L 139 208 L 149 208 L 150 207 L 152 207 L 155 201 L 155 194 L 154 193 L 154 190 L 150 187 Z M 143 189 L 147 189 L 148 190 L 149 190 L 151 192 L 151 203 L 149 205 L 143 205 L 142 204 L 142 190 Z M 107 187 L 107 208 L 110 208 L 110 200 L 111 199 L 114 200 L 117 208 L 123 207 L 123 187 L 120 187 L 120 199 L 119 200 L 116 199 L 112 188 Z M 86 187 L 86 203 L 87 205 L 91 208 L 99 207 L 102 203 L 102 187 L 99 187 L 99 202 L 97 205 L 91 205 L 89 202 L 89 187 Z M 62 187 L 62 208 L 65 208 L 65 196 L 68 195 L 71 201 L 75 194 L 78 195 L 78 208 L 81 208 L 81 187 L 77 187 L 72 193 L 70 193 L 66 187 Z M 43 188 L 41 191 L 41 204 L 42 206 L 46 208 L 51 208 L 52 207 L 54 207 L 57 203 L 57 192 L 56 190 L 52 187 L 45 187 Z M 47 189 L 50 189 L 51 190 L 52 190 L 53 191 L 53 193 L 54 194 L 54 200 L 53 201 L 53 203 L 51 205 L 46 205 L 44 203 L 44 192 Z M 26 187 L 24 188 L 21 192 L 21 203 L 22 205 L 26 208 L 32 208 L 36 206 L 36 204 L 34 203 L 32 205 L 26 205 L 24 202 L 24 193 L 25 191 L 28 189 L 31 189 L 34 192 L 36 191 L 36 189 L 33 187 Z M 129 186 L 129 208 L 133 208 L 133 186 Z M 93 116 L 90 121 L 90 129 L 94 138 L 85 148 L 86 161 L 98 169 L 111 169 L 118 166 L 125 169 L 136 169 L 128 160 L 133 140 L 125 141 L 120 149 L 111 141 L 119 132 L 119 119 L 106 112 Z M 95 150 L 100 145 L 102 145 L 110 153 L 110 154 L 113 157 L 113 159 L 112 160 L 110 160 L 109 161 L 100 161 L 99 160 L 98 160 L 95 156 Z M 104 120 L 106 120 L 107 121 L 108 121 L 109 122 L 109 123 L 110 124 L 110 127 L 109 128 L 109 129 L 106 132 L 103 132 L 101 130 L 101 129 L 100 128 L 100 123 L 102 121 L 103 121 Z M 155 75 L 121 85 L 114 89 L 110 100 L 144 90 L 144 169 L 155 169 Z M 155 52 L 116 65 L 112 69 L 110 73 L 110 77 L 155 62 Z M 64 52 L 64 169 L 74 169 L 74 63 Z M 40 21 L 42 164 L 51 169 L 51 37 L 111 54 L 166 36 L 167 169 L 174 167 L 178 21 L 110 44 Z"/>
  </g>
</svg>
