<?xml version="1.0" standalone="no"?>
<!DOCTYPE svg PUBLIC "-//W3C//DTD SVG 20010904//EN"
 "http://www.w3.org/TR/2001/REC-SVG-20010904/DTD/svg10.dtd">
<svg version="1.0" xmlns="http://www.w3.org/2000/svg"
 width="1536.000000pt" height="1024.000000pt" viewBox="0 0 1536.000000 1024.000000"
 preserveAspectRatio="xMidYMid meet">

<g transform="translate(0.000000,1024.000000) scale(0.100000,-0.100000)"
fill="#FFFFFF" stroke="none">
<path d="M3225 7608 c-176 -76 -430 -187 -565 -245 -706 -305 -849 -367 -891
-385 l-46 -20 -229 97 c-217 92 -389 164 -1154 482 -179 74 -328 137 -332 140
-5 2 -8 -1049 -8 -2337 l0 -2341 35 -15 c19 -7 57 -14 85 -14 l50 0 0 2105 c0
1158 2 2105 5 2105 3 0 85 -33 183 -74 398 -167 690 -289 917 -386 322 -137
430 -180 450 -180 9 0 103 38 208 84 106 46 298 130 427 186 129 57 368 161
530 232 162 72 301 132 308 135 9 4 12 -420 12 -2101 l0 -2106 43 0 c150 0
277 129 306 310 17 102 15 4470 -1 4469 -7 -1 -157 -64 -333 -141z"/>
<path d="M4645 6929 c-167 -24 -290 -111 -355 -252 -43 -92 -50 -161 -50 -494
0 -411 16 -486 129 -602 171 -175 543 -190 727 -29 47 41 114 125 114 143 0
10 -136 108 -173 124 -5 2 -31 -21 -57 -52 -67 -74 -124 -100 -220 -101 -127
-1 -217 57 -255 163 -22 64 -22 647 0 712 34 100 114 159 226 167 91 6 154
-16 217 -76 27 -26 54 -55 59 -65 8 -16 18 -13 106 39 53 31 97 62 97 68 0 23
-57 102 -106 145 -110 98 -272 137 -459 110z"/>
<path d="M5820 6929 c-128 -23 -273 -127 -325 -233 -51 -106 -55 -143 -55
-516 0 -367 4 -411 51 -502 27 -53 103 -133 154 -164 70 -41 155 -65 250 -71
182 -11 324 37 427 145 118 123 128 169 128 598 0 297 -2 339 -20 408 -30 119
-119 234 -220 286 -94 48 -272 70 -390 49z m208 -231 c33 -8 61 -26 98 -62 80
-78 84 -99 84 -459 0 -187 -4 -313 -11 -336 -19 -65 -60 -114 -120 -144 -151
-75 -317 -25 -380 116 -23 50 -24 62 -27 340 -2 187 1 307 8 343 12 58 59 136
101 166 61 45 156 59 247 36z"/>
<path d="M6700 6196 l0 -736 110 0 110 0 2 568 3 567 82 -185 c45 -102 118
-264 162 -360 l79 -175 47 0 46 0 162 363 162 364 3 -571 2 -571 115 0 115 0
0 736 0 736 -107 -4 c-121 -4 -164 -20 -219 -80 -50 -53 -68 -86 -123 -213
-106 -244 -154 -346 -161 -338 -4 4 -40 85 -80 178 -135 316 -171 377 -249
423 -41 24 -59 27 -153 31 l-108 3 0 -736z"/>
<path d="M8170 6413 c0 -294 5 -548 10 -588 39 -270 305 -433 611 -375 123 24
249 110 301 207 63 116 63 115 63 718 l0 550 -117 3 -117 3 -3 -543 c-3 -597
-2 -584 -66 -651 -100 -105 -306 -93 -387 23 -55 79 -54 73 -55 643 l0 527
-120 0 -120 0 0 -517z"/>
<path d="M9417 6923 c-4 -3 -7 -334 -7 -735 l0 -728 115 0 115 0 2 516 3 516
219 -516 219 -516 124 0 125 0 33 33 c21 21 40 55 52 93 17 55 18 107 18 699
l0 640 -117 3 -118 3 -2 -598 c-2 -370 -6 -590 -12 -578 -5 11 -62 148 -127
305 -182 442 -278 669 -310 737 -33 69 -72 107 -127 123 -41 11 -195 14 -205
3z"/>
<path d="M10720 6195 l0 -735 115 0 115 0 0 735 0 735 -115 0 -115 0 0 -735z"/>
<path d="M11250 6196 l0 -736 268 0 c205 0 281 3 325 15 178 46 305 178 342
352 21 98 21 642 0 731 -32 136 -118 253 -225 307 -110 56 -125 58 -427 62
l-283 5 0 -736z m529 498 c61 -18 123 -69 154 -128 21 -39 22 -55 25 -349 4
-364 0 -388 -76 -466 -63 -65 -116 -81 -274 -81 l-118 0 0 520 0 520 118 0
c78 0 136 -5 171 -16z"/>
<path d="M12741 6833 c-16 -54 -55 -183 -86 -288 -31 -104 -117 -389 -191
-632 -74 -243 -134 -444 -134 -447 0 -3 55 -6 123 -6 l124 0 48 175 48 175
206 -2 206 -3 28 -100 c15 -55 37 -133 49 -172 l21 -73 128 0 128 0 -9 28 c-5
15 -59 189 -119 387 -186 608 -310 1009 -321 1033 -9 21 -15 22 -114 22 l-105
0 -30 -97z m214 -528 c37 -132 70 -252 73 -267 l4 -28 -152 0 c-139 0 -151 1
-146 18 2 9 34 125 71 257 73 265 74 270 79 264 2 -2 34 -112 71 -244z"/>
<path d="M13600 6195 l0 -735 268 0 c208 0 281 3 327 15 180 47 301 177 341
365 22 104 16 671 -8 740 -46 136 -134 243 -241 294 -100 47 -168 56 -439 56
l-248 0 0 -735z m541 493 c56 -25 114 -83 140 -141 23 -50 24 -63 27 -329 3
-227 1 -287 -12 -338 -22 -83 -62 -139 -128 -175 -50 -28 -60 -30 -195 -33
l-143 -4 0 522 0 522 138 -4 c95 -3 148 -9 173 -20z"/>
<path d="M440 4880 l0 -1911 158 3 157 3 0 1670 c0 1351 -3 1682 -13 1734 -29
136 -109 266 -222 356 -38 30 -71 55 -74 55 -4 0 -6 -860 -6 -1910z"/>
<path d="M2875 6691 c-60 -26 -130 -57 -155 -69 -25 -11 -189 -82 -365 -157
-403 -173 -483 -214 -545 -282 -73 -80 -94 -143 -93 -276 0 -59 3 -110 5 -113
3 -2 52 18 109 45 117 55 682 310 774 348 102 43 268 131 307 163 52 43 90
125 96 209 5 73 -5 181 -16 181 -4 0 -56 -22 -117 -49z"/>
<path d="M2870 5973 c-69 -30 -186 -81 -260 -113 -368 -159 -582 -255 -655
-293 -105 -54 -175 -120 -211 -200 -26 -56 -28 -72 -28 -169 0 -60 3 -110 6
-113 3 -3 54 17 114 44 60 27 289 129 509 226 452 200 498 223 560 277 82 72
118 198 98 340 l-8 56 -125 -55z"/>
<path d="M2765 5200 l-150 -68 -3 -1081 -2 -1081 160 0 160 0 0 1150 c0 633
-3 1150 -7 1149 -5 0 -75 -31 -158 -69z"/>
<path d="M6037 5050 c-70 -12 -150 -54 -192 -102 -56 -62 -78 -119 -83 -219
-6 -125 22 -203 110 -310 l38 -47 -59 -43 c-73 -55 -126 -117 -160 -189 -24
-50 -26 -66 -26 -180 0 -121 1 -127 32 -185 80 -152 218 -226 421 -226 122 0
223 28 311 86 l54 36 15 -23 c9 -12 28 -35 42 -50 25 -27 26 -27 165 -29 146
-2 154 1 121 41 -7 8 -54 66 -106 129 l-94 113 17 27 c64 100 96 209 104 354
l6 107 -115 0 -115 0 -6 -97 c-6 -103 -25 -213 -37 -213 -3 0 -45 48 -92 108
-47 59 -104 130 -127 158 l-40 51 54 37 c72 50 142 126 167 184 47 104 32 262
-32 350 -33 46 -113 102 -170 120 -51 16 -148 22 -203 12z m149 -254 c24 -24
34 -44 35 -67 2 -53 -2 -91 -12 -116 -11 -29 -88 -113 -104 -113 -16 0 -72 71
-95 123 -23 50 -25 95 -6 141 19 45 52 66 104 66 37 0 50 -6 78 -34z m-114
-615 c12 -16 59 -75 102 -132 44 -57 100 -128 124 -157 42 -50 44 -54 26 -67
-41 -31 -129 -58 -194 -59 -81 0 -149 30 -194 87 -41 51 -49 150 -18 220 22
50 97 137 117 137 7 0 24 -13 37 -29z"/>
<path d="M4242 4308 l3 -743 112 -3 113 -3 2 566 3 567 47 -104 c26 -57 95
-206 152 -333 58 -126 110 -238 116 -247 7 -13 23 -18 54 -18 l43 0 120 268
c67 147 138 307 159 356 l39 90 5 -570 5 -569 113 -3 112 -3 0 747 0 746 -104
-4 c-94 -3 -108 -6 -152 -34 -87 -53 -112 -97 -300 -526 -21 -49 -41 -88 -44
-88 -3 0 -50 101 -104 225 -54 123 -116 251 -137 283 -65 100 -151 142 -291
142 l-68 0 2 -742z"/>
<path d="M7481 5039 c-167 -28 -299 -159 -331 -329 -6 -31 -10 -275 -10 -601
l0 -549 125 0 125 0 0 315 0 316 243 -2 242 -1 3 111 3 111 -246 0 -245 0 0
128 c1 184 28 233 149 269 44 13 86 15 208 11 l153 -6 0 119 0 119 -182 -1
c-101 -1 -207 -5 -237 -10z"/>
<path d="M8220 4305 l0 -745 2983 2 2982 3 68 22 c84 27 123 51 175 107 47 51
73 99 96 175 14 47 16 129 16 618 l0 563 -3160 0 -3160 0 0 -745z m4146 242
c11 -45 27 -101 33 -124 l12 -43 130 0 c82 0 128 -4 124 -10 -3 -5 -46 -37
-95 -70 -49 -34 -93 -67 -98 -73 -7 -8 4 -54 33 -142 24 -71 42 -132 39 -134
-2 -2 -46 35 -97 83 -52 47 -98 86 -102 86 -4 0 -52 -38 -106 -86 -55 -47 -99
-82 -99 -77 0 4 19 65 42 136 l43 128 -25 19 c-14 11 -63 46 -109 77 l-85 58
130 3 131 3 33 130 c18 71 35 127 38 124 3 -3 16 -43 28 -88z m-2911 51 c28
-15 66 -44 86 -65 33 -35 89 -120 89 -136 0 -4 -64 -7 -143 -7 l-143 0 -31
-32 c-17 -18 -51 -62 -76 -97 l-46 -64 -57 1 c-34 0 -60 5 -65 13 -4 7 -17 43
-29 81 -12 39 -30 74 -41 81 -10 6 -19 19 -19 27 1 28 37 95 71 131 72 77 136
100 264 96 74 -3 99 -8 140 -29z m1602 11 c72 -28 144 -94 180 -168 26 -51 28
-66 28 -171 0 -103 -3 -121 -26 -170 -58 -123 -148 -183 -286 -189 -109 -4
-168 16 -244 86 -76 71 -101 129 -107 250 -5 109 8 169 50 235 82 130 253 183
405 127z m2973 -69 l0 -70 -310 0 -310 0 0 70 0 70 310 0 310 0 0 -70z m-2
-266 l-3 -75 -160 0 c-88 0 -226 0 -307 0 l-148 1 0 75 0 75 310 0 311 0 -3
-76z m-4372 6 c0 -25 -2 -58 -5 -74 -6 -27 -8 -24 -33 39 -15 38 -24 73 -21
78 2 4 17 7 31 5 25 -3 27 -7 28 -48z m-665 -32 c10 -29 18 -54 19 -56 0 -2
-10 -2 -22 0 -21 3 -23 10 -26 63 -4 69 4 67 29 -7z m582 -52 c23 -59 36 -107
33 -121 -9 -36 -80 -109 -137 -140 -51 -28 -61 -30 -164 -30 -100 0 -115 2
-160 27 -58 30 -104 76 -134 133 -26 48 -27 65 -3 63 9 -1 66 0 126 0 l109 2
38 40 c33 35 44 40 83 40 41 0 46 3 67 38 29 47 37 53 74 50 28 -3 32 -9 68
-102z m4457 -196 l0 -80 -310 0 -310 0 0 80 0 80 310 0 310 0 0 -80z"/>
<path d="M1570 4649 c-123 -24 -239 -118 -281 -227 -59 -156 -24 -326 100
-479 l50 -61 -77 -59 c-166 -127 -235 -290 -202 -480 22 -136 99 -252 204
-312 183 -104 471 -90 662 31 l48 30 43 -48 c23 -27 43 -52 43 -56 0 -5 77 -8
171 -8 l171 0 -34 44 c-18 24 -73 95 -122 156 l-89 112 41 86 c22 48 47 110
56 137 20 63 46 234 46 303 l0 52 -134 0 -133 0 -6 -102 c-5 -95 -32 -256 -44
-268 -3 -3 -18 11 -33 30 -176 219 -260 326 -260 332 0 3 19 18 43 31 159 94
247 253 234 427 -3 42 -14 96 -26 122 -24 58 -90 131 -147 164 -77 45 -218 64
-324 43z m165 -246 c69 -33 97 -152 55 -237 -11 -23 -44 -66 -75 -96 l-55 -54
-29 34 c-80 95 -115 191 -97 264 8 31 53 85 80 96 34 14 83 11 121 -7z m31
-915 c85 -109 154 -199 154 -202 0 -9 -69 -44 -119 -61 -71 -23 -199 -17 -256
12 -160 84 -167 285 -14 428 42 39 52 45 65 34 9 -7 85 -102 170 -211z"/>
</g>
</svg>
